<svg width="32" height="32" viewBox="0 0 32 32" fill="none" xmlns="http://www.w3.org/2000/svg">
  <!-- Newspaper base -->
  <rect x="4" y="6" width="24" height="20" rx="2" fill="#f97316" opacity="0.15"/>

  <!-- Newspaper lines (articles) -->
  <line x1="7" y1="10" x2="15" y2="10" stroke="#f97316" stroke-width="1.5" stroke-linecap="round"/>
  <line x1="7" y1="13" x2="13" y2="13" stroke="#f97316" stroke-width="1" stroke-linecap="round" opacity="0.7"/>
  <line x1="7" y1="16" x2="15" y2="16" stroke="#f97316" stroke-width="1" stroke-linecap="round" opacity="0.7"/>

  <line x1="17" y1="10" x2="25" y2="10" stroke="#f97316" stroke-width="1.5" stroke-linecap="round"/>
  <line x1="17" y1="13" x2="23" y2="13" stroke="#f97316" stroke-width="1" stroke-linecap="round" opacity="0.7"/>
  <line x1="17" y1="16" x2="25" y2="16" stroke="#f97316" stroke-width="1" stroke-linecap="round" opacity="0.7"/>

  <line x1="7" y1="20" x2="25" y2="20" stroke="#f97316" stroke-width="1" stroke-linecap="round" opacity="0.5"/>
  <line x1="7" y1="23" x2="20" y2="23" stroke="#f97316" stroke-width="1" stroke-linecap="round" opacity="0.5"/>

  <!-- AI Sparkle/Star accent -->
  <g transform="translate(22, 4)">
    <path d="M5 0 L5.5 2 L7.5 2.5 L5.5 3 L5 5 L4.5 3 L2.5 2.5 L4.5 2 Z" fill="#f97316"/>
    <circle cx="5" cy="2.5" r="0.5" fill="#fff" opacity="0.8"/>
  </g>

  <!-- AI Sparkle accent 2 -->
  <g transform="translate(2, 24)">
    <path d="M2.5 0 L2.75 1 L3.75 1.25 L2.75 1.5 L2.5 2.5 L2.25 1.5 L1.25 1.25 L2.25 1 Z" fill="#f97316" opacity="0.6"/>
  </g>
</svg>
